<svg preserveAspectRatio="none" width="100%" height="100%" overflow="visible" style="display: block;" viewBox="0 0 24 28" fill="none" xmlns="http://www.w3.org/2000/svg">
<path id="Vector" d="M24 13.668C24 19.5833 17.1336 22.7252 11.9996 28C6.86644 22.7252 0 19.5833 0 13.668C0 12.4395 0.349871 11.2894 0.957498 10.3292C0.692982 9.02577 0.650726 7.69181 0.829042 6.37441C0.997217 5.17638 1.32681 4.00535 1.80936 2.90316C2.14571 2.12335 2.54882 1.37492 3.01109 0.666555C3.16236 0.439146 3.31786 0.214339 3.48266 0C3.45308 0.271845 3.43956 0.541087 3.43364 0.812932C3.40998 1.6032 3.45646 2.39259 3.57224 3.17502C3.70746 4.14825 3.97789 5.09796 4.37762 5.99016C4.63199 6.54779 4.95482 7.06535 5.33512 7.53846C5.55231 7.51494 5.77372 7.501 5.99852 7.501C9.313 7.501 11.9996 10.3667 11.9996 10.3667C11.9996 10.3667 14.687 7.501 17.9981 7.501C18.2229 7.501 18.4468 7.51494 18.6649 7.53846C18.7705 7.41213 18.8728 7.27969 18.9717 7.14028C19.2134 6.79351 19.4339 6.40839 19.6258 5.99016C20.0246 5.09796 20.2959 4.14825 20.4311 3.17502C20.5469 2.39608 20.5926 1.6032 20.5731 0.812932C20.5664 0.541087 20.5503 0.268359 20.5199 0C20.6855 0.214339 20.8436 0.439146 20.9957 0.666555C21.4579 1.37492 21.8602 2.12335 22.1974 2.90316C22.6495 3.96179 23.0028 5.11888 23.1743 6.37441C23.2605 7.00088 23.2994 7.65087 23.28 8.3209C23.2605 8.99528 23.1811 9.6653 23.0425 10.3257C23.6467 11.2894 24 12.4395 24 13.668Z" fill="var(--fill-0, white)"/>
</svg>
