<svg preserveAspectRatio="none" width="100%" height="100%" overflow="visible" style="display: block;" viewBox="0 0 174 58" fill="none" xmlns="http://www.w3.org/2000/svg">
<g id="Group 1">
<path id="Vector" d="M88.6025 40.769C88.4305 40.687 88.2355 40.699 88.0715 40.797C87.9115 40.89 87.8095 41.062 87.8015 41.25C87.7935 41.363 87.7005 43.805 88.9815 45.008C88.5985 46.039 87.5835 48.918 86.9385 51.941C86.2935 48.918 85.2785 46.039 84.8955 45.008C86.1725 43.805 86.0795 41.363 86.0755 41.25C86.0675 41.062 85.9655 40.89 85.8055 40.797C85.6415 40.699 85.4425 40.687 85.2745 40.769C84.4695 41.152 83.6765 41.32 82.9855 41.379C84.7275 39.996 86.1805 37.258 86.9385 34.355C87.6965 37.262 89.1535 40 90.8955 41.383C90.2085 41.324 89.4115 41.152 88.6025 40.769ZM93.2665 41.199C90.6265 41.199 87.5005 35.25 87.5005 30.222C87.5005 29.914 87.2475 29.66 86.9385 29.66C86.6265 29.66 86.3765 29.914 86.3765 30.222C86.3765 35.25 83.2505 41.199 80.6105 41.199C80.3295 41.199 80.0945 41.402 80.0555 41.676C80.0125 41.953 80.1805 42.215 80.4465 42.297C80.5435 42.324 82.5635 42.914 84.9225 42.121C84.8365 42.914 84.5795 43.937 83.9265 44.344C83.7005 44.484 83.6025 44.769 83.7005 45.023C83.7275 45.09 86.3765 51.976 86.3765 56.461C86.3765 56.769 86.6265 57.019 86.9385 57.019C87.2475 57.019 87.5005 56.769 87.5005 56.461C87.5005 51.98 90.1495 45.09 90.1725 45.023C90.2705 44.769 90.1765 44.484 89.9465 44.344C89.2975 43.937 89.0405 42.914 88.9545 42.121C91.3095 42.914 93.3335 42.324 93.4265 42.297C93.6965 42.215 93.8645 41.953 93.8215 41.676C93.7825 41.402 93.5435 41.199 93.2665 41.199Z" fill="var(--fill-0, #CCCC64)"/>
<path id="Vector_2" d="M15.5364 1.28906C14.0674 2.05506 13.3254 3.05106 12.9694 3.71506C12.0834 3.14806 10.1964 2.10906 7.26637 1.28906H15.5364ZM81.8564 32.8121L81.0904 32.2851C80.9464 32.1871 80.7624 32.1601 80.5984 32.2151C81.6104 31.2541 82.4814 30.1171 83.2044 28.8321C82.7864 30.4221 82.3174 31.7811 81.8564 32.8121ZM80.2154 32.6681C80.1654 33.0231 80.0244 33.9301 79.9654 34.3121C79.2084 35.0311 77.6184 35.0781 76.0244 34.8791C77.5244 34.4571 78.9694 33.6601 80.2544 32.5271C80.2354 32.5701 80.2234 32.6171 80.2154 32.6681ZM0.524371 1.28506C8.75837 1.85506 12.8334 4.97207 12.8724 5.00807C13.0204 5.12107 13.2194 5.15607 13.3954 5.09407C13.5754 5.03507 13.7154 4.88706 13.7624 4.70706C13.8014 4.56606 14.7584 1.28906 20.9224 1.28906H63.8364C71.2504 1.28906 77.0714 3.22606 80.6574 6.89406C83.2394 9.53106 84.5514 12.9571 84.4614 16.8051C84.3994 19.4531 83.3094 21.9221 81.3874 23.7501C79.4694 25.5781 76.9614 26.5471 74.2974 26.4881C72.5794 26.4491 70.9814 25.7421 69.7934 24.5001C68.6184 23.2731 67.9934 21.6641 68.0164 19.9721C68.0164 19.8901 68.0244 19.8011 68.0324 19.7191C68.1264 18.4141 68.8214 17.2851 69.8444 16.6051C70.7314 16.2461 71.2004 17.2651 72.2974 17.2651C73.0284 17.2651 73.5204 16.8831 73.5204 16.1521C73.5204 15.5151 73.0714 14.9841 72.4694 14.8551C72.3994 14.8241 72.3214 14.8011 72.2354 14.7971C70.8564 14.7621 69.5674 15.2581 68.5674 16.1871C69.0594 13.1401 69.2584 9.60107 65.6884 8.84807C65.6494 8.84007 65.6104 8.83606 65.5754 8.83606C65.5284 8.83606 65.4894 8.84807 65.4464 8.85907C65.0404 8.82007 64.6844 9.02706 64.5284 9.39406C64.3334 9.85506 64.5514 10.3901 65.0164 10.5861C65.7314 10.8871 66.6454 10.5581 67.1804 11.0551C68.0044 12.3441 67.7274 14.5511 67.2584 17.1721C67.0944 18.0821 66.9504 18.9411 66.9114 19.6641C66.9034 19.7381 66.8954 19.8121 66.8914 19.8901C66.8914 19.9141 66.8954 19.9331 66.8954 19.9571C66.8954 19.9761 66.8914 20.0001 66.8914 20.0191C66.8914 20.0271 66.8954 20.0351 66.8954 20.0431C66.8834 24.1331 70.1574 27.5151 74.2704 27.6091C77.2114 27.6831 80.0284 26.5981 82.1654 24.5581C83.0714 23.6951 83.8014 22.6991 84.3564 21.6171C83.7904 25.7221 82.2274 29.1481 79.7744 31.4491C77.5514 33.5351 74.7744 34.4611 72.1454 33.9881C71.8564 33.9371 71.5754 34.1171 71.5004 34.4021C71.4304 34.6831 71.5864 34.9761 71.8644 35.0701C72.5714 35.3121 78.8484 37.3401 80.9184 34.9371C80.9894 34.8591 81.0364 34.7621 81.0514 34.6561C81.0514 34.6561 81.1224 34.1951 81.1924 33.7191L81.7584 34.1131C81.8954 34.2031 82.0594 34.2341 82.2194 34.1911C82.3764 34.1521 82.5044 34.0471 82.5794 33.9021C83.9894 31.1331 85.5714 25.2421 85.7194 18.8481C85.7194 18.8241 85.7194 18.8051 85.7154 18.7811C85.7544 17.3401 85.6844 15.8401 85.5044 14.2971C85.4934 14.2071 85.4584 14.1291 85.4114 14.0581C84.9584 11.0271 83.6184 8.31607 81.4614 6.11307C77.6574 2.22207 71.5594 0.164062 63.8364 0.164062H0.563372C0.258372 0.164062 0.0123724 0.406062 0.00037245 0.707062C-0.0106276 1.00806 0.223371 1.26506 0.524371 1.28506Z" fill="var(--fill-0, #CCCC64)"/>
<path id="Vector_3" d="M48.5675 9.74605C48.3405 10.801 48.5005 11.851 48.9585 12.687C47.8605 12.14 47.2005 11.176 47.2005 10.457C47.2005 9.44905 47.5635 8.61305 48.3135 7.91005C48.9305 7.32405 49.7585 6.88306 50.6725 6.55106C49.4815 7.48806 48.8095 8.62905 48.5675 9.74605ZM35.8445 7.07005C34.9305 6.45305 33.5835 5.94905 32.2005 5.55505H37.5835C36.7625 6.07405 36.1885 6.66405 35.8445 7.07005ZM58.7705 19.996C58.0245 19.519 57.2935 19.5351 56.7505 18.6761C55.7085 16.3161 55.3645 13.101 56.4465 10.496C57.7665 7.30805 60.8835 5.60504 65.4615 5.55804C73.6105 5.65204 79.2785 9.82004 79.2785 15.765C79.2785 17.172 78.7905 18.4531 77.9305 19.3981C76.4615 20.4021 75.3485 19.211 74.1455 19.211C73.4115 19.211 72.8175 19.805 72.8175 20.535C72.8175 21.062 73.1265 21.5121 73.5715 21.7261C73.6415 21.7891 73.7195 21.8401 73.8175 21.8631C75.2705 22.1911 76.8295 21.801 78.0905 20.793C79.5595 19.621 80.3995 17.789 80.3995 15.765C80.3995 9.32405 74.2435 4.62106 65.6885 4.44106C65.6765 4.44106 65.6615 4.43304 65.6455 4.43304C65.5905 4.43304 65.5365 4.43704 65.4815 4.43704C65.3835 4.43704 65.2905 4.43304 65.1885 4.43304H57.9225C57.8135 4.43304 57.6965 4.43005 57.5675 4.43005C57.4735 4.43005 57.3645 4.43304 57.2625 4.43304H26.6765C26.3835 4.43304 26.1375 4.66405 26.1185 4.95705C26.0985 5.25405 26.3135 5.51206 26.6065 5.55106C28.5475 5.80506 33.9425 6.78906 35.5755 8.27306C35.6965 8.38706 35.8645 8.43705 36.0245 8.41405C36.1885 8.39405 36.3365 8.30105 36.4265 8.16005C36.4935 8.05505 38.1335 5.55505 41.5085 5.55505H45.1765C43.7235 6.50805 42.5245 7.93705 41.3485 9.34805C39.4465 11.6211 37.6495 13.7731 34.9695 13.7731C33.4465 13.7731 32.2865 13.4101 31.4185 12.8591C30.2355 11.9101 30.5715 10.4611 30.5715 9.34406C30.5715 8.69506 30.0435 8.16805 29.3955 8.16805C28.8135 8.16805 28.3175 8.55504 28.2195 9.10104C28.2045 9.15204 28.1885 9.20705 28.1885 9.26505C28.1885 11.441 30.0285 14.894 34.9695 14.894C38.1765 14.894 40.2275 12.4371 42.2115 10.0661C44.1495 7.74606 45.9815 5.55505 48.7705 5.55505H50.1615C49.1615 5.93305 48.2475 6.43006 47.5435 7.09406C46.5715 8.00806 46.0755 9.14005 46.0755 10.457C46.0755 12.207 48.1375 14.2341 50.7975 14.2341C51.0635 14.2341 51.2935 14.051 51.3485 13.789C51.3995 13.527 51.2625 13.265 51.0165 13.16C49.9345 12.695 49.3685 11.3591 49.6655 9.98006C50.1455 7.77306 52.7865 5.45305 58.7315 5.58205H58.7435C58.7905 5.58205 58.8295 5.56605 58.8725 5.55505H59.7825C57.3445 6.68005 56.0715 8.46906 55.4075 10.0661C53.7155 14.1441 55.0835 19.383 57.4265 21.719C57.5125 21.808 57.6265 21.8511 57.7435 21.8671C58.2745 22.0981 58.8175 21.9331 59.1025 21.4841C59.4225 20.9841 59.2745 20.316 58.7705 19.996Z" fill="var(--fill-0, #CCCC64)"/>
<path id="Vector_4" d="M93.2787 32.2151C93.1147 32.1601 92.9307 32.1871 92.7867 32.2851L92.0207 32.8121C91.5597 31.7811 91.0907 30.4221 90.6727 28.8321C91.3957 30.1171 92.2667 31.2541 93.2787 32.2151ZM97.8217 34.8711C96.2397 35.0621 94.6577 35.0151 93.9077 34.3121C93.8527 33.9301 93.7117 33.0231 93.6617 32.6681C93.6537 32.6211 93.6377 32.5701 93.6227 32.5271C94.8997 33.6521 96.3337 34.4451 97.8217 34.8711ZM166.611 1.28906C163.681 2.10906 161.794 3.14806 160.904 3.71506C160.552 3.05106 159.81 2.05506 158.341 1.28906H166.611ZM88.3727 14.2971C88.1927 15.8401 88.1227 17.3361 88.1577 18.7771C88.1577 18.8011 88.1577 18.8241 88.1577 18.8481C88.3057 25.2421 89.8877 31.1331 91.2937 33.9021C91.3687 34.0471 91.5007 34.1521 91.6577 34.1911C91.8177 34.2341 91.9817 34.2031 92.1147 34.1091L92.6807 33.7191C92.7547 34.1951 92.8257 34.6561 92.8257 34.6561C92.8407 34.7621 92.8877 34.8551 92.9547 34.9371C95.0327 37.3401 101.302 35.3121 102.013 35.0701C102.291 34.9761 102.447 34.6831 102.377 34.4021C102.302 34.1171 102.021 33.9371 101.732 33.9881C99.1067 34.4611 96.3257 33.5351 94.1027 31.4491C91.6497 29.1441 90.0867 25.7221 89.5167 21.6171C90.0757 22.6991 90.8057 23.6951 91.7117 24.5581C93.8487 26.5981 96.6577 27.6831 99.6067 27.6091C101.623 27.5621 103.501 26.7341 104.896 25.2771C106.255 23.8551 106.99 22.0001 106.978 20.0431C106.982 20.0351 106.986 20.0271 106.986 20.0191C106.986 20.0001 106.982 19.9761 106.982 19.9611C106.982 19.9371 106.986 19.9141 106.986 19.8901C106.982 19.8121 106.974 19.7381 106.966 19.6641C106.927 18.9411 106.779 18.0821 106.619 17.1721C106.15 14.5511 105.873 12.3441 106.697 11.0551C107.232 10.5581 108.146 10.8871 108.861 10.5861C109.326 10.3901 109.544 9.85906 109.349 9.39406C109.193 9.02706 108.837 8.82007 108.431 8.85907C108.388 8.84807 108.349 8.83606 108.302 8.83606C108.267 8.83606 108.228 8.84007 108.189 8.84807C104.619 9.60107 104.818 13.1401 105.31 16.1871C104.306 15.2621 103.013 14.7691 101.638 14.7971C101.556 14.8011 101.478 14.8241 101.408 14.8551C100.806 14.9841 100.357 15.5151 100.357 16.1521C100.357 16.8831 100.849 17.2651 101.58 17.2651C102.666 17.2651 103.138 16.2651 104.013 16.5981C105.041 17.2731 105.744 18.3981 105.845 19.6991C105.849 19.7931 105.857 19.8901 105.861 19.9761C105.884 21.6721 105.255 23.2771 104.084 24.5041C102.896 25.7421 101.298 26.4491 99.5797 26.4881C96.9307 26.5471 94.4077 25.5781 92.4857 23.7501C90.5677 21.9221 89.4737 19.4531 89.4157 16.8051C89.3217 12.9571 90.6377 9.53106 93.2157 6.89406C96.8057 3.22606 102.627 1.28906 110.041 1.28906H152.955C159.119 1.28906 160.076 4.56606 160.115 4.70306C160.158 4.88706 160.294 5.03507 160.474 5.09407C160.658 5.15607 160.857 5.12107 161.005 5.00807C161.044 4.97607 165.119 1.85506 173.353 1.28506C173.654 1.26506 173.884 1.00806 173.873 0.707062C173.865 0.406062 173.615 0.164062 173.314 0.164062H110.041C102.314 0.164062 96.2197 2.22207 92.4117 6.11307C90.2587 8.31607 88.9187 11.0271 88.4617 14.0581C88.4187 14.1291 88.3837 14.2071 88.3727 14.2971Z" fill="var(--fill-0, #CCCC64)"/>
<path id="Vector_5" d="M138.029 7.06999C137.689 6.66399 137.115 6.07399 136.294 5.55499H141.677C140.294 5.94899 138.943 6.45299 138.029 7.06999ZM126.677 10.457C126.677 11.176 126.017 12.14 124.919 12.687C125.377 11.851 125.537 10.801 125.306 9.74599C125.064 8.62499 124.396 7.48399 123.201 6.55099C124.115 6.88299 124.943 7.32399 125.564 7.90599C126.314 8.61299 126.677 9.44899 126.677 10.457ZM147.197 4.43298H116.615C116.513 4.43298 116.404 4.43298 116.31 4.43298C116.181 4.43298 116.064 4.43298 115.955 4.43298H108.685C108.591 4.43298 108.494 4.43698 108.396 4.43698C108.337 4.43698 108.287 4.43298 108.228 4.43298C108.216 4.43298 108.205 4.44099 108.189 4.44099C99.6336 4.62099 93.4736 9.32398 93.4736 15.765C93.4736 17.789 94.3176 19.621 95.7866 20.793C97.0476 21.801 98.6026 22.191 100.056 21.863C100.154 21.84 100.236 21.789 100.302 21.726C100.751 21.512 101.06 21.062 101.06 20.535C101.06 19.805 100.466 19.211 99.7316 19.211C98.5246 19.211 97.4116 20.406 95.9426 19.398C95.0866 18.453 94.5986 17.172 94.5986 15.765C94.5986 9.81998 100.267 5.65198 108.416 5.55798C112.994 5.60498 116.111 7.30799 117.431 10.496C118.513 13.101 118.169 16.32 117.127 18.676C116.58 19.535 115.853 19.519 115.103 19.996C114.603 20.316 114.455 20.984 114.775 21.484C115.06 21.933 115.603 22.098 116.134 21.867C116.251 21.851 116.365 21.808 116.451 21.719C118.791 19.383 120.162 14.14 118.47 10.066C117.806 8.46899 116.533 6.67999 114.091 5.55499H115.017C115.06 5.56599 115.103 5.58199 115.146 5.58199C121.099 5.46099 123.732 7.773 124.209 9.98C124.509 11.359 123.939 12.695 122.857 13.16C122.615 13.265 122.474 13.527 122.529 13.789C122.584 14.051 122.814 14.238 123.08 14.238C125.736 14.238 127.802 12.203 127.802 10.457C127.802 9.13999 127.306 8.00798 126.334 7.08998C125.63 6.42998 124.712 5.93299 123.716 5.55499H125.107C127.896 5.55499 129.728 7.74598 131.666 10.062C133.65 12.437 135.701 14.894 138.908 14.894C143.849 14.894 145.689 11.441 145.689 9.26498C145.689 9.20698 145.673 9.15199 145.654 9.09799C145.556 8.55099 145.064 8.16798 144.482 8.16798C143.83 8.16798 143.302 8.69499 143.302 9.34399C143.302 10.461 143.642 11.91 142.459 12.859C141.591 13.406 140.427 13.773 138.908 13.773C136.224 13.773 134.427 11.621 132.529 9.34399C131.353 7.93699 130.15 6.50799 128.701 5.55499H132.369C135.744 5.55499 137.38 8.05499 137.451 8.15999C137.537 8.30099 137.685 8.39398 137.849 8.41798C138.013 8.43698 138.181 8.38699 138.302 8.27299C139.935 6.789 145.33 5.80499 147.271 5.55099C147.564 5.51199 147.779 5.25399 147.759 4.95699C147.74 4.66399 147.494 4.43298 147.197 4.43298Z" fill="var(--fill-0, #CCCC64)"/>
<path id="Vector_6" d="M86.9895 1.351L89.3996 3.76201L86.8876 6.269L84.4776 3.86301L86.9895 1.351ZM86.4895 7.457C86.7115 7.68 87.0676 7.68 87.2866 7.457L90.5905 4.15601C90.8095 3.93701 90.8095 3.58201 90.5905 3.36301L87.3836 0.164001C87.2786 0.0580015 87.1375 0 86.9895 0C86.8365 0 86.6965 0.0580015 86.5905 0.164001L83.2866 3.465C83.1806 3.57 83.1226 3.71101 83.1226 3.86301C83.1226 4.00801 83.1806 4.15201 83.2866 4.25801L86.4895 7.457Z" fill="var(--fill-0, #CCCC64)"/>
</g>
</svg>
