<svg preserveAspectRatio="none" width="100%" height="100%" overflow="visible" style="display: block;" viewBox="0 0 154 141" fill="none" xmlns="http://www.w3.org/2000/svg">
<g id="Wolf_Glyph" clip-path="url(#clip0_30_50)">
<path id="Vector" d="M43.55 121.02C42.6 121.36 41.62 121.62 40.73 122.06C39.78 122.53 38.93 122.73 38.02 122.02C37.75 121.81 37.43 121.75 37.21 122.16C37.13 122.3 36.96 122.38 36.83 122.49C36.44 122.81 35.94 123.06 35.69 123.47C34.49 125.39 32.7 126.66 30.87 127.85C29.94 128.45 28.87 128.22 28.05 127.78C28.44 126.55 28.88 125.43 29.14 124.26C29.5 122.7 29.33 121.15 28.83 119.62C28.45 118.46 27.81 117.57 26.63 117.17C26.41 117.09 26.02 117.18 25.85 117.35C24.3 118.82 22.75 120.29 21.27 121.83C20.82 122.3 20.43 122.62 19.75 122.58C18.98 122.54 18.21 122.57 17.43 122.55C16.7 122.54 16.18 122.19 15.96 121.49C15.27 119.28 14.44 117.1 13.96 114.84C13.12 110.93 13.06 106.98 14.04 103.06C14.1 102.82 14.16 102.58 14.2 102.33C14.21 102.26 14.2 102.18 14.2 102.02C13.5 101.93 12.8 101.83 12.1 101.74C10.59 101.54 9.13 101.24 7.75 100.48C7.01 100.08 6.08 100.01 5.24 99.82C4.52 99.66 4.32 99.22 4.48 98.55C4.58 98.14 4.69 97.73 4.75 97.31C4.84 96.71 5.16 96.36 5.71 96.09C6.11 95.89 6.43 95.51 6.77 95.2C7.06 94.93 7.31 94.61 7.62 94.37C10.04 92.53 11.87 90.19 13.36 87.56C13.46 87.39 13.55 87.2 13.6 87.01C13.77 86.38 13.56 86.32 12.94 86.29C11.54 86.22 10.14 86.02 8.75 85.8C8.58 85.77 8.34 85.31 8.36 85.06C8.4 84.44 8.51 83.81 8.71 83.23C8.84 82.84 9.18 82.52 9.49 82.08C9.22 82 8.94 81.88 8.65 81.82C7.7 81.63 6.73 81.5 5.79 81.27C5.48 81.19 5.07 80.91 4.99 80.63C4.81 80.04 4.43 79.92 3.92 79.77C2.77 79.41 1.64 78.96 0.51 78.53C0.3 78.45 0.13 78.24 -0.01 77.91C0.32 77.9 0.64 77.91 0.96 77.87C2.24 77.73 3.56 77.73 4.78 77.38C5.64 77.13 6.4 76.45 7.12 75.86C8.65 74.61 9.71 72.98 10.55 71.21C10.89 70.5 11.22 69.75 11.38 68.98C11.63 67.84 11.79 66.67 11.86 65.51C11.9 64.78 11.68 64.04 11.58 63.26C12.16 63.18 12.32 62.86 12.17 62.28C10.42 55.1 9.51 47.78 8.85 40.43C8.56 37.21 7.98 33.99 7.98 30.77C7.98 22.32 9.36 14.11 13.09 6.4C13.57 5.4 13.61 4.18 13.87 3.07C14.03 2.37 14.19 1.66 14.37 0.97C14.49 0.49 14.82 0.28 15.32 0.33C16.44 0.43 17.56 0.48 18.67 0.65C18.97 0.69 19.33 1.01 19.46 1.29C20.25 3.01 20.97 4.75 21.72 6.49C22.62 8.54 23.55 10.58 24.42 12.64C24.64 13.16 24.71 13.75 24.75 14.32C24.96 16.9 25.13 19.49 25.32 22.07C25.35 22.5 25.44 22.93 25.51 23.36C25.58 23.36 25.64 23.36 25.71 23.37C25.78 23.1 25.87 22.83 25.92 22.55C26.75 18.12 27.6 13.69 28.41 9.25C28.82 7 29.14 4.72 29.58 2.48C29.96 0.52 30.14 0.33 31.71 0.15C34.3 -0.15 34.31 -0.22 35.23 2.18C35.82 3.73 36.33 5.31 36.9 6.87C37.31 8.01 37.84 9.12 38.16 10.28C38.55 11.71 38.78 13.19 39.08 14.64C39.92 18.65 39.7 22.72 39.77 26.78C39.78 27.48 39.75 28.17 39.77 28.87C39.78 29.34 40.04 29.53 40.45 29.25C41.08 28.81 41.75 28.87 42.46 28.89C42.88 28.9 43.38 28.83 43.73 28.62C46.33 27.05 49.2 26.12 52.02 25.08C54.67 24.11 57.45 23.83 60.2 23.44C61.8 23.21 63.41 22.95 65.02 22.85C67.19 22.72 69.1 23.67 70.93 24.69C71.48 25 71.9 25.71 72.16 26.33C72.77 27.78 73.25 29.28 73.15 30.89C73.13 31.27 73.16 31.66 73.18 32.24C73.81 31.86 74.27 31.59 74.71 31.33C74.81 31.45 74.86 31.48 74.87 31.52C75.19 32.87 75.45 33.04 76.65 32.25C78.72 30.88 80.73 29.41 82.74 27.96C83.87 27.15 84.98 26.3 86.06 25.43C86.7 24.91 87.22 24.26 87.86 23.75C88.91 22.92 89.95 22.04 91.12 21.4C93.31 20.21 95.57 19.16 97.82 18.1C98.65 17.71 99.53 17.4 100.42 17.19C101 17.05 101.64 17.13 102.25 17.15C102.75 17.17 103.28 17.36 103.25 16.51C103.25 16.32 103.56 16.07 103.78 15.94C106.26 14.36 108.75 12.8 111.23 11.23C112.35 10.52 113.58 9.94 114.54 9.06C116.09 7.65 117.76 7.81 119.54 8.26C120.82 8.58 122.11 8.88 123.37 9.25C124.2 9.5 125.05 9.77 125.78 10.21C126.14 10.43 126.38 11.04 126.44 11.51C126.89 15.17 127.28 18.83 127.69 22.49C127.74 22.96 127.85 23.44 127.83 23.9C127.77 24.9 127.73 25.92 127.52 26.9C126.68 30.92 125.78 34.93 124.91 38.95C124.86 39.19 124.77 39.44 124.76 39.68C124.71 40.83 124.35 41.75 123.18 42.24C122.76 42.41 122.54 42.79 123.16 43.09C123.27 43.14 123.38 43.22 123.45 43.31C123.74 43.67 123.34 45.95 122.93 46.29C122.58 46.58 121.28 46.29 120.8 45.82C120.45 45.48 120.13 45.07 119.72 44.82C118.51 44.09 117.13 44.19 115.8 44.25C113.76 44.35 112.17 45.47 110.72 46.79C110.41 47.08 110.24 47.53 110.02 47.91C109.96 48.02 109.95 48.19 109.87 48.24C108.99 48.77 109.15 49.69 109.03 50.49C108.22 56.01 107.43 61.53 106.62 67.05C106.45 68.21 106.21 69.35 106.02 70.51C105.9 71.25 106 71.39 106.75 71.25C108.58 70.89 110.41 70.5 112.23 70.09C114.03 69.69 115.83 69.28 117.61 68.82C118.12 68.69 118.65 68.44 119.06 68.11C119.94 67.39 120.68 66.46 121.61 65.82C123.27 64.69 123.33 62.93 123.67 61.25C123.88 60.23 124.14 59.22 124.39 58.2C124.48 57.81 124.74 57.64 125.11 57.81C125.53 58.01 126.02 58.17 126.31 58.5C127.04 59.31 127.69 60.2 128.33 61.08C128.57 61.42 128.74 61.56 129.17 61.33C129.49 61.16 130.08 60.98 130.25 61.14C130.49 61.36 130.56 61.89 130.53 62.28C130.2 66.7 129.28 71 127.89 75.2C127.77 75.58 127.73 76.01 127.53 76.33C127.3 76.7 126.94 77 126.59 77.28C126.36 77.46 126.03 77.5 125.8 77.67C123.91 79.01 122.07 80.4 120.16 81.7C116.28 84.32 112.37 86.9 108.47 89.49C108.37 89.56 108.26 89.63 108.16 89.69C106.43 90.78 106.07 92.24 107.15 94C109.07 97.15 111.02 100.27 112.93 103.43C113.33 104.09 113.32 104.84 113.36 105.62C113.43 106.99 112.58 107.7 111.88 108.56C109.43 111.58 106.98 114.59 104.49 117.57C103.82 118.38 102.97 119.04 102.28 119.84C101.84 120.35 101.53 120.99 101.21 121.6C100.87 122.25 100.39 122.48 99.59 122.12C99.06 121.89 98.75 121.97 98.39 122.4C97.59 123.36 96.68 124.22 95.93 125.21C94.92 126.53 93.61 127.35 92.11 127.96C91.68 128.14 91.24 128.36 90.88 128.65C88.75 130.35 86.17 131.1 83.69 132.06C83.11 132.28 82.55 132.56 82.02 132.87C79.43 134.42 76.77 135.79 73.88 136.72C70.75 137.74 67.65 138.82 64.52 139.83C63.7 140.09 62.82 140.24 61.96 140.33C59.73 140.56 57.5 140.7 55.27 140.92C54.59 140.99 54.14 140.8 53.79 140.2C51.63 136.5 49.45 132.82 47.28 129.14C46.09 127.12 44.93 125.09 43.73 123.08C43.35 122.44 43.14 121.83 43.56 121.01L43.55 121.02ZM18.48 118.91C18.48 119.03 18.5 119.15 18.48 119.26C18.41 119.57 18.25 119.91 18.71 120.06C19.12 120.19 19.48 120.41 19.93 119.99C21.45 118.56 23.01 117.17 24.6 115.81C26.27 114.37 27.54 114.51 28.91 116.23C30.55 118.29 31.21 120.71 31.4 123.28C31.43 123.65 31.35 124.04 31.88 124.16C32.37 124.26 32.76 124.4 33.2 123.89C34.21 122.73 35.32 121.66 36.42 120.58C36.61 120.4 36.93 120.3 37.2 120.26C38.79 120.04 40.4 119.9 41.98 119.63C43.42 119.38 44.84 118.99 46.27 118.68C47.87 118.33 49.5 118.08 51.06 117.62C53.4 116.93 55.69 116.1 58 115.31C60.15 114.58 62.26 113.76 64.43 113.09C65.8 112.67 67.19 112.42 68.49 111.69C70.23 110.71 72.15 110.04 73.95 109.17C75.65 108.35 77.34 107.51 78.96 106.55C81.24 105.19 83.46 103.75 85.67 102.28C88.12 100.65 90.51 98.95 92.94 97.3C96.21 95.08 99.21 92.41 102.99 90.98C103.78 90.68 104.54 90.31 105.29 89.93C105.98 89.59 106.65 89.22 107.31 88.82C108.8 87.93 110.3 87.04 111.75 86.1C113.43 85 115.13 83.92 116.72 82.7C118.94 80.99 121.03 79.11 123.26 77.4C124.73 76.27 126.06 75.05 126.65 73.26C127.03 72.11 127.28 70.91 127.48 69.71C127.68 68.49 127.82 67.24 127.84 66C127.86 64.99 127.29 64.66 126.37 65.07C126.1 65.19 125.91 65.5 125.69 65.73C124.95 66.5 124.32 67.43 123.46 68.01C121.07 69.62 118.68 71.27 115.74 71.84C114.26 72.13 112.85 72.76 111.37 73.1C109.12 73.62 106.84 73.72 104.54 73.43C103.73 73.33 103.24 72.87 103.16 72.1C103.07 71.31 103.02 70.5 103.1 69.72C103.83 62.22 105.26 54.84 107.03 47.52C107.26 46.58 107.68 45.75 108.48 45.15C110.49 43.64 112.76 42.79 115.21 42.38C117.03 42.08 118.85 41.85 120.66 41.51C122.96 41.08 123.22 40.77 123.66 38.46C124.25 35.33 124.87 32.2 125.46 29.07C125.59 28.36 125.72 27.65 125.77 26.93C125.84 25.76 125.43 25.34 124.25 25.15C122.17 24.81 120.08 24.47 118.01 24.09C114.27 23.4 110.65 22.35 107.31 20.45C106.23 19.83 104.98 19.4 103.75 19.17C101.19 18.69 98.71 19.41 96.28 20.11C95.04 20.47 93.83 21.11 92.78 21.86C90.5 23.49 88.25 25.18 86.15 27.04C83.95 28.99 81.83 31 79.12 32.25C78.52 32.53 77.95 32.89 77.34 33.16C76.46 33.56 75.57 33.92 74.66 34.27C74.54 34.32 74.31 34.18 74.17 34.08C73.5 33.61 72.94 33.62 72.31 34.12C72.18 34.22 72.03 34.28 71.82 34.39C71.82 34.06 71.83 33.81 71.84 33.57C71.86 31.2 71.43 28.94 69.91 27.05C68.05 24.73 65.53 23.74 62.63 24.06C58.87 24.47 55.22 25.35 51.74 26.89C49.49 27.88 47.17 28.7 44.89 29.62C43.53 30.17 42.19 30.75 40.84 31.32C40.73 31.37 40.62 31.44 40.52 31.52C39.79 32.09 38.96 32.29 38.06 32.17C37.07 32.04 36.1 31.78 35.11 31.71C33.23 31.57 31.34 31.48 29.33 32.17C29.42 31.15 29.46 30.24 29.58 29.34C30.01 26.03 30.53 22.73 30.88 19.42C31.28 15.68 31.64 11.94 32.59 8.28C32.65 8.04 32.75 7.82 32.9 7.41C33.15 7.98 33.32 8.34 33.46 8.71C34.42 11.19 35.67 13.6 36.25 16.17C36.91 19.11 37.03 22.18 37.26 25.21C37.41 27.14 37.3 29.09 37.38 31.03C37.42 31.93 37.6 31.97 38.48 31.8C39.05 31.69 39.02 31.29 39.01 30.9C38.93 27.69 38.96 24.47 38.71 21.28C38.53 18.99 38.16 16.67 37.51 14.47C36.65 11.55 35.67 8.64 34.07 5.98C33.66 5.29 33.16 4.8 32.38 4.86C31.67 4.91 31.58 5.63 31.46 6.16C30.91 8.51 30.28 10.85 29.93 13.24C29.27 17.75 28.78 22.28 28.22 26.8C28.08 27.89 27.88 28.97 27.77 30.05C27.7 30.73 27.54 31.48 27.75 32.09C28.06 32.99 27.73 33.4 27.02 33.79C26.63 34 26.37 34.02 26.21 33.57C25.96 32.87 25.71 32.16 25.5 31.45C25.01 29.83 24.45 28.23 24.08 26.58C23.56 24.25 23.2 21.89 22.75 19.54C22.25 16.88 21.72 14.22 21.23 11.56C20.79 9.12 20.14 6.77 18.72 4.69C18.17 3.88 17.31 3.36 16.55 3.54C15.7 3.74 15.55 4.49 15.33 5.18C15.06 6.06 14.86 6.97 14.48 7.8C12.75 11.58 11.67 15.56 10.83 19.62C9.55 25.79 10.12 31.96 10.69 38.14C10.92 40.63 11.73 43.08 11.2 45.62C11.18 45.71 11.2 45.82 11.22 45.92C11.58 47.39 11.94 48.86 12.3 50.33C12.7 51.97 13.1 53.61 13.49 55.25C13.9 56.97 14.32 58.68 14.7 60.4C14.95 61.53 15.26 62.61 14.91 63.83C14.16 66.46 13.59 69.15 12.91 71.8C12.83 72.12 12.62 72.44 12.39 72.68C11.81 73.29 11.13 73.82 10.58 74.46C9.61 75.61 8.15 76.31 7.69 77.96C7.28 79.42 7.38 79.7 8.9 79.74C9.73 79.76 10.56 79.86 11.44 79.93C11.2 80.86 10.98 81.65 10.79 82.44C10.47 83.82 10.94 84.25 12.35 84.08C13.32 83.97 14.31 84.08 15.29 84.08C15.25 84.16 15.2 84.24 15.16 84.33C15.38 84.68 15.55 85.08 15.84 85.35C16.42 85.88 16.53 86.24 16.07 86.89C15.57 87.6 15.01 88.28 14.49 88.97C12.86 91.14 11.18 93.27 9.63 95.49C9.11 96.23 8.57 96.76 7.72 97.02C7.53 97.08 7.31 97.3 7.25 97.49C7.02 98.27 7.23 98.6 8.15 98.71C10.54 99.01 12.93 99.29 15.33 99.53C15.85 99.58 16.08 99.7 15.93 100.24C15.77 100.84 15.56 101.43 15.47 102.04C14.67 107.4 14.98 112.66 16.89 117.77C17.3 118.87 17.3 118.88 18.44 118.91H18.48ZM85.45 122.8C85.5 122.77 85.55 122.74 85.6 122.72C85.42 122.31 85.27 121.88 85.04 121.5C82.98 117.98 80.89 114.46 78.83 110.93C78.55 110.46 78.28 110.38 77.81 110.66C76.46 111.46 75.07 112.19 73.74 113.03C72.56 113.78 71.1 114.12 70.29 115.41C70.24 115.5 70.07 115.53 69.96 115.56C68.79 115.91 67.62 116.26 66.45 116.6C61.28 118.08 56.1 119.55 50.93 121.05C49.05 121.6 49.02 121.66 50.01 123.4C52.26 127.33 54.57 131.24 56.85 135.16C57.63 136.51 58.79 137.08 60.34 136.88C60.64 136.84 60.93 136.78 61.23 136.76C65.76 136.51 69.95 135.02 74.05 133.22C75.39 132.63 76.71 131.99 78.06 131.4C78.94 131.01 79.84 130.67 80.73 130.29C80.91 130.21 81.06 130.08 81.21 129.96C81.64 129.6 82.03 129.18 82.49 128.87C83.88 127.95 85.24 126.97 86.95 126.71C87.53 126.62 87.37 126.23 87.16 125.86C86.58 124.85 86.02 123.83 85.45 122.82V122.8ZM100.06 117.01C100.54 116.48 101.03 115.94 101.52 115.4C104.16 112.48 106.8 109.57 108.98 106.28C109.41 105.63 109.42 105.09 109.01 104.43C107.27 101.61 105.57 98.77 103.85 95.95C103.51 95.39 103.12 94.85 102.8 94.37C98.7 97.37 94.67 100.33 90.75 103.19C91.05 103.46 91.36 103.64 91.54 103.91C94.37 108.23 97.18 112.57 100.07 117.01H100.06ZM124.58 12.11C124.4 11.96 124.17 11.67 123.88 11.56C123.28 11.32 122.66 11.13 122.02 11.01C120.48 10.71 118.93 10.49 117.39 10.17C116.39 9.97 115.56 10.11 114.66 10.71C111.8 12.62 108.86 14.4 105.95 16.22C105.38 16.57 105.19 17.14 105.31 17.7C105.38 18.01 105.83 18.29 106.18 18.48C106.42 18.61 106.76 18.51 107.05 18.57C107.26 18.61 107.48 18.7 107.66 18.83C108.04 19.12 108.35 19.53 108.76 19.74C111.94 21.29 115.43 21.7 118.81 22.51C120.06 22.81 121.31 23.14 122.54 23.53C123.2 23.74 123.82 24.2 124.41 23.44C124.46 23.37 124.59 23.36 124.69 23.34C125.88 23.04 125.94 23.04 125.84 21.83C125.7 20.15 125.46 18.47 125.24 16.79C125.04 15.28 124.81 13.78 124.58 12.13V12.11ZM96.16 119.26C96.08 119.15 96 119 95.89 118.88C95.53 118.48 95.09 118.14 94.8 117.7C92.31 113.83 89.83 109.94 87.38 106.05C87.06 105.54 86.77 105.4 86.25 105.75C85.72 106.11 85.17 106.46 84.59 106.75C84.05 107.02 84.03 107.3 84.31 107.81C85.88 110.61 87.41 113.43 88.97 116.23C90.2 118.45 91.47 120.65 92.7 122.87C93 123.41 93.31 123.44 93.75 123.05C94.15 122.69 94.57 122.35 94.99 122.01C95.37 121.7 95.95 121.47 96.1 121.07C96.3 120.56 96.16 119.92 96.17 119.28L96.16 119.26ZM124.82 61.94C125.12 62.57 125.67 62.53 126.11 62.53C126.27 62.53 126.53 62.08 126.55 61.82C126.6 61.33 126.62 60.79 126.43 60.36C126.32 60.11 125.81 59.98 125.46 59.9C125.34 59.87 125.04 60.16 125.01 60.34C124.9 60.86 124.88 61.4 124.83 61.94H124.82ZM122.07 45.24C122.21 44.58 122.51 44.01 122.34 43.65C122.21 43.36 121.33 43.08 121.1 43.25C120.78 43.48 120.54 44.19 120.67 44.57C120.77 44.87 121.46 44.97 122.07 45.24Z" fill="var(--fill-0, #C41D2A)"/>
<path id="Vector_2" d="M133 40.77C132.44 40.51 131.8 40.3 131.28 39.92C131.13 39.81 131.26 39.18 131.41 38.85C133.29 34.84 135.27 30.87 137.05 26.82C137.87 24.96 138.82 23.22 139.9 21.52C140.21 21.04 140.52 20.9 141.07 21.09C141.87 21.37 142.71 21.51 143.5 21.82C143.86 21.96 144.12 22.37 144.43 22.65C144.76 22.96 145.04 23.36 145.43 23.57C147.3 24.57 147.24 24.52 146.34 26.39C145.41 28.32 143.75 29.59 142.35 31.08C139.49 34.13 136.57 37.12 133.67 40.13C133.5 40.31 133.31 40.46 133 40.75V40.77Z" fill="var(--fill-0, #C41D2A)"/>
<path id="Vector_3" d="M145.19 42.77C142.92 43.58 140.65 44.42 138.37 45.19C138.04 45.3 137.56 45.25 137.26 45.08C136.53 44.67 135.84 44.16 135.17 43.65C134.54 43.17 134.56 42.83 135.23 42.39C136.9 41.3 138.57 40.23 140.25 39.16C142.56 37.69 144.86 36.21 147.17 34.76C147.78 34.38 148.43 34.05 149.08 33.75C150.09 33.28 150.89 33.38 151.44 34.29C152.18 35.51 152.76 36.84 153.37 38.14C153.45 38.32 153.38 38.66 153.26 38.84C152.72 39.65 152.11 40.38 151.12 40.72C149.14 41.39 147.18 42.12 145.21 42.82C145.21 42.8 145.2 42.79 145.19 42.77Z" fill="var(--fill-0, #C41D2A)"/>
<path id="Vector_4" d="M151.25 51.08C149.51 51.45 147.93 51.8 146.34 52.12C143.59 52.68 140.83 53.24 138.07 53.75C137.61 53.83 137.08 53.71 136.62 53.55C136.4 53.47 136.17 53.11 136.13 52.85C136.03 52.27 136.06 51.66 136.01 51.07C135.94 50.36 136.49 50.17 136.95 49.99C138.89 49.24 140.84 48.5 142.8 47.82C144.6 47.19 146.44 46.67 148.25 46.06C149.39 45.67 150.34 46.2 151.32 46.61C151.47 46.67 151.59 46.97 151.59 47.17C151.6 48.29 151.59 49.41 151.54 50.53C151.54 50.75 151.31 50.97 151.25 51.08Z" fill="var(--fill-0, #C41D2A)"/>
<path id="Vector_5" d="M147.74 65.12C147.18 65.04 146.68 65.02 146.21 64.89C143.69 64.2 141.18 63.5 138.66 62.78C137.77 62.53 136.9 62.23 136.02 61.97C135.58 61.84 135.43 61.58 135.54 61.13C135.82 60.02 136.09 58.91 136.34 57.79C136.44 57.35 136.71 57.32 137.07 57.43C137.86 57.66 138.64 57.9 139.43 58.14C141.95 58.91 144.47 59.68 146.99 60.46C147.51 60.62 148 60.87 148.51 61.08C149.07 61.31 149.23 61.71 149.02 62.28C148.76 62.98 148.53 63.69 148.25 64.38C148.15 64.64 147.93 64.84 147.73 65.11L147.74 65.12Z" fill="var(--fill-0, #C41D2A)"/>
<path id="Vector_6" d="M22.68 1.16C23.58 1.3 23.78 1.71 23.56 2.8C23.23 2.2 23 1.76 22.68 1.16Z" fill="var(--fill-0, #C41D2A)"/>
<path id="Vector_7" d="M124.82 61.94C124.87 61.41 124.89 60.86 125 60.34C125.04 60.16 125.33 59.87 125.45 59.9C125.8 59.98 126.31 60.11 126.42 60.36C126.6 60.79 126.58 61.33 126.54 61.82C126.51 62.08 126.26 62.53 126.1 62.53C125.67 62.53 125.11 62.57 124.81 61.94H124.82Z" fill="var(--fill-0, #C41D2A)"/>
<path id="Vector_8" d="M122.07 45.24C121.46 44.97 120.77 44.86 120.67 44.57C120.55 44.19 120.78 43.48 121.1 43.25C121.32 43.09 122.2 43.36 122.34 43.65C122.51 44.01 122.2 44.58 122.07 45.24Z" fill="var(--fill-0, #C41D2A)"/>
<path id="Vector_9" d="M32.95 121.4C32.85 121.06 32.77 120.86 32.74 120.65C32.35 118.45 31.57 116.43 30.02 114.79C28.42 113.09 25.89 112.22 23.66 114.24C22.2 115.56 20.69 116.81 19.2 118.1C19.11 118.18 19 118.23 18.78 118.37C18.29 116.64 17.75 115.02 17.39 113.35C16.65 109.94 16.63 106.48 17.09 103.03C17.22 102.07 17.53 101.14 17.66 100.19C17.72 99.74 17.66 99.23 17.48 98.81C17.22 98.18 16.7 97.88 15.95 97.87C14.71 97.85 13.46 97.76 12.23 97.62C10.97 97.48 10.72 96.86 11.47 95.89C13.58 93.15 15.66 90.38 17.84 87.69C18.91 86.37 18.21 84.71 16.89 83.93C16.46 83.67 16.08 83.48 16.11 82.88C16.11 82.75 15.81 82.52 15.63 82.49C14.7 82.36 13.76 82.28 12.72 82.17C12.77 81.88 12.82 81.58 12.88 81.28C12.98 80.82 13.14 80.37 13.2 79.9C13.32 78.88 13.03 78.48 12.03 78.29C11.31 78.15 10.57 78.09 9.65 77.97C10.3 77.33 10.81 76.82 11.33 76.3C12.23 75.41 13.16 74.54 14.02 73.6C14.32 73.28 14.5 72.81 14.61 72.37C14.84 71.46 14.96 70.52 15.18 69.61C15.71 67.46 16.4 65.33 16.77 63.16C16.94 62.17 16.56 61.07 16.35 60.04C15.97 58.22 15.54 56.4 15.12 54.59C14.74 52.97 14.3 51.36 13.98 49.73C13.65 48.03 13.37 46.31 13.19 44.59C12.67 39.69 12.16 34.78 11.75 29.87C11.45 26.24 12.04 22.67 12.68 19.11C13.39 15.16 14.8 11.44 16.36 7.77C16.64 7.12 16.8 6.42 17.21 5.67C17.64 6.45 18.19 7.19 18.49 8.02C18.93 9.23 19.25 10.49 19.53 11.75C19.95 13.62 20.31 15.5 20.66 17.38C21.04 19.41 21.34 21.45 21.74 23.48C22.06 25.09 22.43 26.69 22.84 28.27C23.34 30.17 23.95 32.04 24.45 33.94C24.88 35.57 26.66 36.12 28.26 35.04C28.93 34.6 29.56 34.11 30.25 33.7C30.56 33.52 30.95 33.4 31.31 33.38C33.15 33.26 34.98 33.24 36.8 33.71C38.51 34.14 40.16 33.91 41.65 32.89C41.71 32.85 41.78 32.81 41.85 32.78C43.29 32.17 44.72 31.55 46.17 30.97C48.33 30.09 50.54 29.3 52.67 28.36C55.74 27.01 58.98 26.3 62.26 25.76C65.11 25.29 67.64 26.62 69.11 29.01C70.07 30.57 70.19 32.23 70.12 33.96C70.12 34.18 70.09 34.41 70.05 34.63C69.86 35.87 70.94 36.5 71.89 36.67C72.06 36.7 72.25 36.57 72.43 36.52C72.61 36.46 72.83 36.29 72.96 36.35C73.75 36.69 74.42 36.29 75.11 36.05C78.76 34.79 82.13 33.01 85.07 30.49C86.77 29.04 88.35 27.44 90.08 26.02C91.89 24.55 93.84 23.29 96 22.33C98.11 21.39 100.28 20.89 102.54 20.89C103.58 20.89 104.75 21.06 105.63 21.56C110.26 24.18 115.34 25.4 120.48 26.44C121.62 26.67 122.78 26.8 124.07 27C123.99 27.62 123.94 28.23 123.83 28.83C123.24 31.96 122.62 35.09 122.06 38.22C121.92 39 121.66 39.52 120.83 39.66C119.24 39.93 117.65 40.21 116.06 40.51C114.67 40.78 113.22 40.92 111.92 41.43C110.32 42.06 108.79 42.92 107.33 43.84C106.24 44.53 105.74 45.74 105.44 46.97C103.6 54.5 102.1 62.1 101.4 69.83C101.29 71.01 101.4 72.14 101.79 73.29C102.18 74.46 102.97 75.05 104.09 75.09C106 75.16 107.93 75.24 109.82 75.03C111.53 74.84 113.21 74.28 114.9 73.86C115.65 73.68 116.41 73.51 117.13 73.25C118.36 72.79 119.6 72.34 120.76 71.73C122.12 71.02 123.4 70.16 124.7 69.34C125.05 69.12 125.36 68.82 125.78 68.47C125.79 68.75 125.82 68.93 125.81 69.11C125.53 72.08 124.34 74.46 121.82 76.28C119.23 78.15 116.9 80.39 114.36 82.33C112.77 83.55 110.99 84.53 109.29 85.59C107.75 86.55 106.2 87.47 104.65 88.41C104.52 88.49 104.39 88.56 104.25 88.61C102.81 89.22 101.32 89.74 99.94 90.46C98.76 91.07 97.67 91.88 96.57 92.64C92.99 95.11 89.44 97.63 85.84 100.07C83.41 101.71 80.95 103.3 78.44 104.81C76.68 105.86 74.82 106.76 72.97 107.68C70.95 108.69 68.94 109.7 66.87 110.6C65.32 111.27 63.7 111.79 62.09 112.33C59.36 113.25 56.63 114.21 53.86 115C51.12 115.78 48.34 116.4 45.56 117.04C43.22 117.58 40.86 118.06 38.5 118.53C38.07 118.62 37.61 118.61 37.16 118.57C36.38 118.5 35.75 118.73 35.2 119.28C34.5 119.98 33.77 120.64 32.95 121.41V121.4Z" fill="var(--fill-0, #C41D2A)"/>
</g>
<defs>
<clipPath id="clip0_30_50">
<rect width="153.41" height="140.94" fill="white"/>
</clipPath>
</defs>
</svg>
