<svg preserveAspectRatio="none" width="100%" height="100%" overflow="visible" style="display: block;" viewBox="0 0 100 24" fill="none" xmlns="http://www.w3.org/2000/svg">
<g id="frill right">
<path id="Vector" d="M16.265 1.656C17.129 1.656 18.144 1.656 19.289 1.652C23.797 2.172 29.39 5.699 32.847 5.699C36.094 5.699 36.586 1.668 33.183 1.59C35.281 1.578 37.461 1.566 39.687 1.555C44.336 1.754 47.633 5.07 50.82 8.285C53.926 11.418 57.137 14.66 61.496 14.66C64.617 14.66 67.152 12.129 67.152 9.012C67.152 6.445 65.062 4.359 62.492 4.359C60.359 4.359 58.625 6.09 58.625 8.219C58.625 8.598 58.933 8.906 59.312 8.906C59.691 8.906 60 8.598 60 8.219C60 6.848 61.117 5.73 62.492 5.73C64.305 5.73 65.781 7.203 65.781 9.012C65.781 11.371 63.859 13.289 61.496 13.289C57.711 13.289 54.836 10.387 51.797 7.32C49.629 5.133 47.414 2.902 44.738 1.523C46.16 1.516 47.586 1.508 49.008 1.5C60.043 1.434 70.461 1.371 74.398 1.371C80.535 1.371 85.566 6.156 85.973 12.184C85.98 12.457 85.988 12.727 86.008 12.992C85.996 18.019 81.894 22.105 76.859 22.105C72.898 22.105 69.672 18.887 69.672 14.93C69.672 11.844 72.191 9.328 75.285 9.328C77.683 9.328 79.633 11.277 79.633 13.672C79.633 14.914 78.945 15.988 77.933 16.562C77.933 16.441 77.933 16.316 77.906 16.199C77.609 14.934 76.301 14.551 75.113 15.09C73.73 15.719 73.062 17.16 73.031 17.988C73.023 18.141 73.226 18.207 73.332 18.094C74.18 17.203 75.195 18.305 76.254 18.375C76.269 18.375 76.281 18.383 76.293 18.383C76.308 18.383 76.328 18.379 76.347 18.379C76.453 18.379 76.558 18.371 76.66 18.348C79.086 18.152 81.008 16.145 81.008 13.672C81.008 10.523 78.441 7.957 75.285 7.957C71.433 7.957 68.301 11.086 68.301 14.93C68.301 19.645 72.137 23.477 76.859 23.477C81.383 23.477 85.234 20.609 86.723 16.602C87.465 18.816 88.723 20.687 90.426 21.988C91.519 22.828 92.984 23.328 94.465 23.328C95.945 23.328 97.441 22.828 98.613 21.66C99.508 20.766 100 19.578 100 18.312C100 17.047 99.508 15.859 98.613 14.965C97.125 13.48 94.742 13.449 93.203 14.844C93.164 14.871 93.129 14.898 93.097 14.93C93.082 14.941 93.066 14.953 93.055 14.965C93.051 14.969 93.047 14.973 93.043 14.977C92.496 15.519 92.265 16.48 91.406 16.273C91.289 16.246 91.187 16.375 91.258 16.473C91.629 16.996 92.68 17.652 93.847 17.477C94.844 17.324 95.535 16.519 95.191 15.57C95.156 15.48 95.105 15.402 95.055 15.32C95.937 15.039 96.941 15.238 97.64 15.937C98.277 16.57 98.625 17.414 98.625 18.312C98.625 19.211 98.277 20.055 97.64 20.691C95.859 22.473 92.941 22.187 91.262 20.902C89.035 19.195 87.66 16.363 87.383 13.008C87.383 12.992 87.387 12.98 87.387 12.965C87.387 12.664 87.359 12.371 87.34 12.078C87.336 11.961 87.324 11.852 87.324 11.738C87.324 11.734 87.32 11.73 87.32 11.727C86.695 5.156 81.14 0 74.398 0C70.457 0 60.035 0.062 49 0.125C45.89 0.145 42.762 0.164 39.707 0.18C39.551 0.176 39.398 0.16 39.242 0.16C39.203 0.16 39.168 0.18 39.129 0.184C29.539 0.238 20.812 0.285 16.265 0.285C15.887 0.285 15.578 0.594 15.578 0.969C15.578 1.348 15.887 1.656 16.265 1.656Z" fill="var(--fill-0, #CCCC64)"/>
</g>
</svg>
