<svg preserveAspectRatio="none" width="100%" height="100%" overflow="visible" style="display: block;" viewBox="0 0 85 24" fill="none" xmlns="http://www.w3.org/2000/svg">
<g id="frill left" clip-path="url(#clip0_26_281)">
<path id="Vector" d="M83.735 1.656C82.871 1.656 81.856 1.656 80.711 1.652C76.203 2.172 70.61 5.699 67.153 5.699C63.906 5.699 63.414 1.668 66.817 1.59C64.719 1.578 62.539 1.566 60.313 1.555C55.664 1.754 52.367 5.07 49.18 8.285C46.074 11.418 42.863 14.66 38.504 14.66C35.383 14.66 32.844 12.129 32.844 9.012C32.844 6.445 34.938 4.359 37.508 4.359C39.641 4.359 41.375 6.09 41.375 8.219C41.375 8.598 41.067 8.906 40.688 8.906C40.309 8.906 40 8.598 40 8.219C40 6.848 38.883 5.73 37.508 5.73C35.695 5.73 34.219 7.203 34.219 9.012C34.219 11.371 36.141 13.289 38.504 13.289C42.289 13.289 45.164 10.387 48.203 7.32C50.371 5.133 52.586 2.902 55.262 1.523C53.84 1.516 52.414 1.508 50.992 1.5C39.957 1.434 29.539 1.371 25.602 1.371C19.465 1.371 14.434 6.156 14.027 12.184C14.02 12.457 14.012 12.727 13.988 12.992C14.004 18.019 18.106 22.105 23.141 22.105C27.102 22.105 30.328 18.887 30.328 14.93C30.328 11.844 27.809 9.328 24.715 9.328C22.317 9.328 20.363 11.277 20.363 13.672C20.363 14.914 21.055 15.988 22.063 16.562C22.067 16.441 22.067 16.316 22.094 16.199C22.391 14.934 23.699 14.551 24.883 15.09C26.27 15.719 26.934 17.16 26.969 17.988C26.973 18.141 26.774 18.207 26.668 18.094C25.82 17.203 24.805 18.305 23.746 18.375C23.731 18.375 23.719 18.383 23.707 18.383C23.688 18.383 23.672 18.379 23.653 18.379C23.547 18.379 23.442 18.371 23.336 18.348C20.91 18.152 18.992 16.145 18.992 13.672C18.992 10.523 21.559 7.957 24.715 7.957C28.567 7.957 31.699 11.086 31.699 14.93C31.699 19.645 27.86 23.477 23.141 23.477C18.617 23.477 14.762 20.609 13.277 16.602C12.531 18.816 11.277 20.687 9.574 21.988C8.477 22.828 7.016 23.328 5.535 23.328C4.055 23.328 2.555 22.828 1.387 21.66C0.492001 20.766 0 19.578 0 18.312C0 17.047 0.492001 15.859 1.387 14.965C2.875 13.48 5.258 13.449 6.797 14.844C6.836 14.871 6.871 14.898 6.903 14.93C6.918 14.941 6.934 14.953 6.945 14.965C6.949 14.969 6.953 14.973 6.957 14.977C7.504 15.519 7.735 16.48 8.59 16.273C8.711 16.246 8.813 16.375 8.742 16.473C8.371 16.996 7.32 17.652 6.153 17.477C5.153 17.324 4.465 16.519 4.809 15.57C4.84 15.48 4.895 15.402 4.945 15.32C4.063 15.039 3.059 15.238 2.36 15.937C1.723 16.57 1.375 17.414 1.375 18.312C1.375 19.211 1.723 20.055 2.36 20.691C4.141 22.473 7.059 22.187 8.738 20.902C10.965 19.195 12.34 16.363 12.617 13.008C12.617 12.992 12.613 12.98 12.613 12.965C12.613 12.664 12.641 12.371 12.66 12.078C12.664 11.961 12.676 11.852 12.676 11.738C12.676 11.734 12.676 11.73 12.676 11.727C13.305 5.156 18.86 0 25.602 0C29.543 0 39.965 0.062 51 0.125C54.11 0.145 57.238 0.164 60.293 0.18C60.449 0.176 60.602 0.16 60.758 0.16C60.797 0.16 60.832 0.18 60.871 0.184C70.461 0.238 79.188 0.285 83.735 0.285C84.113 0.285 84.422 0.594 84.422 0.969C84.422 1.348 84.113 1.656 83.735 1.656Z" fill="var(--fill-0, #CCCC64)"/>
</g>
<defs>
<clipPath id="clip0_26_281">
<rect width="84.422" height="23.477" fill="white"/>
</clipPath>
</defs>
</svg>
