<svg preserveAspectRatio="none" width="100%" height="100%" overflow="visible" style="display: block;" viewBox="0 0 24 28" fill="none" xmlns="http://www.w3.org/2000/svg">
<path id="Vector" d="M14.694 5.11735C14.6875 4.98094 14.6293 4.86917 14.4988 4.90611C14.2314 4.97337 14.0871 5.16187 14.076 5.44321C14.0695 5.54647 14.0871 5.7056 14.2388 5.65066C14.4775 5.55404 14.6441 5.37596 14.694 5.11735ZM20.0102 12.1813C20.0038 12.0335 19.989 11.8706 19.8011 11.8999C19.555 11.9369 19.4903 12.1443 19.5116 12.3556C19.5264 12.4882 19.5772 12.6663 19.7364 12.6435C19.9816 12.6142 19.989 12.3774 20.0102 12.1813ZM17.1948 5.66867C16.9608 5.77193 16.9895 5.99453 16.9895 6.19441C16.9969 6.35355 17.0255 6.55343 17.2383 6.51648C17.4484 6.47954 17.5057 6.2645 17.4844 6.08357C17.477 5.90548 17.4335 5.71319 17.1948 5.66867ZM9.29825 9.02491C9.27697 8.85439 9.1974 8.74357 9.03827 8.78051C8.78569 8.83261 8.66264 9.0249 8.66264 9.27309C8.66264 9.41329 8.75608 9.54685 8.92262 9.51748C9.16872 9.46538 9.25477 9.25036 9.29825 9.02491ZM20.162 15.7184C20.1694 14.9748 19.9307 14.3051 19.5698 13.6723C19.284 13.1655 18.8648 13.0395 18.3551 13.2991C17.7009 13.6211 17.2022 14.1204 16.8377 14.7531C16.4186 15.475 16.4547 16.2186 16.9025 16.7699C17.3901 17.3658 18.4272 17.7693 18.9657 17.5732C19.7216 17.2919 20.1555 16.6221 20.162 15.7184ZM8.23242 14.5343C9.47589 14.5419 10.1513 13.9318 10.2161 12.7885C10.2531 12.0553 10.0578 11.3638 9.68498 10.731C9.4398 10.3274 9.09656 10.1872 8.63673 10.3426C7.87066 10.605 7.26743 11.0597 6.84462 11.7597C6.4329 12.437 6.46898 13.1361 6.82981 13.8134C7.14438 14.4386 7.75131 14.505 8.23242 14.5343ZM18.7779 10.2166C18.7566 9.3394 18.616 8.52568 18.2033 7.77448C17.6214 6.71636 16.7295 6.59039 15.9449 7.50736C14.9651 8.66211 14.608 10.0385 14.8421 11.5409C14.9577 12.2627 15.3343 12.8624 16.0754 13.0765C16.8155 13.2915 17.4632 13.0395 18.0081 12.5033C18.652 11.8706 18.7566 11.0455 18.7779 10.2166ZM14.806 7.90047C14.7958 7.11232 14.6875 6.3905 14.0399 5.98696C13.5486 5.68383 12.9889 5.86097 12.555 6.18305C11.5141 6.95603 10.7221 7.93742 10.3613 9.22478C10.0939 10.1721 10.6139 11.2529 11.4993 11.6745C12.3486 12.078 13.1258 11.8412 13.7586 10.9526C14.4128 10.0319 14.7699 8.98795 14.806 7.90047ZM7.51354 17.6319C7.52001 18.9231 8.13157 19.571 9.39262 19.6004C9.93849 19.6156 10.4844 19.6298 11.0293 19.6004C11.7991 19.5635 12.4643 19.7927 13.0176 20.3592C13.4404 20.7997 13.9677 21.0952 14.5571 21.2174C15.1316 21.3358 15.7423 21.3728 16.1475 20.866C17.304 19.4005 17.4632 18.2429 16.3067 16.859C15.8727 16.3446 15.598 15.8188 15.4499 15.1605C15.1168 13.6647 14.0436 12.8254 12.8371 13.0395C12.0739 13.1731 11.3911 13.4876 10.8887 14.1052C10.5778 14.4908 10.2235 14.6868 9.75068 14.7901C8.34067 15.0856 7.50613 16.1892 7.51354 17.6319ZM10.8239 28C10.513 27.6486 10.4113 27.2602 10.5056 26.7714C10.6787 25.8175 10.7083 24.8294 10.9867 23.8821C11.2245 23.0788 10.7804 22.2869 10.0319 21.9317C9.82284 21.836 9.74327 21.854 9.74327 22.0946C9.74327 22.3977 9.75715 22.7047 9.70719 23.0012C9.6415 23.3374 9.54805 23.7486 9.07435 23.652C8.65523 23.5743 8.67651 23.1897 8.70612 22.8676C8.7348 22.5427 8.82177 22.2206 8.84305 21.8947C8.85785 21.6172 8.85786 21.3065 8.60805 21.1322C8.34067 20.9475 8.13805 21.1691 7.94283 21.3216C7.62178 21.5878 7.31092 21.5206 7.15178 21.1767C6.94546 20.7324 6.77245 20.9844 6.60591 21.1549C5.99528 21.8019 5.2764 22.2869 4.50663 22.698C3.76554 23.0978 3.26686 23.704 2.98838 24.5149C2.84404 24.9251 2.72099 25.3618 2.43141 25.7132C2.11776 26.1016 1.71992 26.1689 1.31099 25.9984C0.914074 25.8317 0.855786 25.4471 0.899271 25.0511C0.927952 24.7953 1.00104 24.5367 1.17406 24.3444C2.31205 23.1158 3.23078 21.6617 4.75551 20.8508C5.0377 20.7031 5.30508 20.4994 5.52898 20.2701C5.7427 20.0485 6.24786 19.7851 5.56136 19.4858C5.40963 19.4195 5.46422 19.249 5.51788 19.1088C5.54748 19.0491 5.56136 18.9828 5.58357 18.9155C4.77772 18.9828 5.13114 18.2979 4.95813 17.9464C4.8138 17.6433 4.45575 17.6613 4.16616 17.6727C3.8886 17.6803 3.64989 17.8356 3.426 18.0061C3.22338 18.1577 3.02446 18.3206 2.80056 18.4314C2.15384 18.7497 1.32579 18.4978 1.13797 17.954C0.964034 17.469 1.47012 16.733 2.11776 16.5549C2.40272 16.481 2.69879 16.4668 2.99578 16.4365C3.24466 16.4071 3.49816 16.4185 3.74334 16.3664C4.13008 16.2849 4.5714 16.1002 4.60008 15.6966C4.62506 15.3196 4.15968 15.2116 3.84511 15.1008C2.87273 14.7749 1.87906 14.701 0.870591 14.9009C0.584704 14.9606 0.32472 14.9976 0.122101 14.738C-0.0222301 14.5646 -0.0333307 14.3572 0.0610398 14.1497C0.209072 13.821 0.534741 13.7026 0.809526 13.8134C1.88646 14.2463 2.91621 13.8059 3.96076 13.6723C4.799 13.5615 5.02289 13.1579 4.69815 12.348C4.65096 12.2258 4.53531 12.078 4.63616 11.9596C5.36244 11.1193 4.62506 10.4013 4.41226 9.67284C4.26793 9.19541 4.30401 8.96618 4.77772 8.86198C5.00162 8.81745 5.24032 8.81745 5.45681 8.75114C5.71309 8.66967 6.08965 8.77293 6.16829 8.35517C6.24138 8.00752 6.14701 7.7148 5.89443 7.46377C5.15335 6.73815 4.38358 6.04663 3.44728 5.56541C3.15121 5.40627 2.85145 5.22817 2.58314 5.01409C2.32686 4.818 2.11776 4.53666 2.24729 4.17006C2.37404 3.79683 2.63402 3.54485 3.03926 3.47854C3.36031 3.42643 3.67858 3.47098 3.96446 3.64054C4.89337 4.19186 5.80746 4.77347 6.44678 5.69139C6.56983 5.86096 6.69288 6.076 6.8955 6.11294C7.37568 6.20199 7.65047 6.47955 7.7985 6.93424C7.90027 7.24495 8.13805 7.46378 8.47852 7.40031C8.83565 7.334 8.7126 6.99393 8.70612 6.76753C8.69872 6.44261 8.75608 6.22756 9.13264 6.19441C9.6563 6.14989 9.61282 5.87613 9.425 5.46501C9.14652 4.82464 8.79217 4.22975 8.485 3.6036C8.2537 3.14132 7.95023 2.59756 8.44244 2.1315C8.69872 1.89089 9.30195 2.39769 9.57674 3.11194C9.75068 3.56664 9.85892 4.04407 10.0319 4.49971C10.1115 4.72138 10.1948 5.06904 10.5204 4.95063C10.7878 4.85496 10.7157 4.52151 10.6426 4.32542C10.303 3.38192 9.93109 2.464 9.56193 1.53566C9.46109 1.27989 9.33433 1.02887 9.24089 0.773098C9.16872 0.565642 9.1826 0.328818 9.40372 0.225564C9.6563 0.11852 9.77936 0.322176 9.85892 0.522053C9.96717 0.80245 10.0828 1.08759 10.1402 1.38409C10.4187 2.78607 11.2754 3.85178 12.1321 4.92126C12.3052 5.13251 12.4754 5.22818 12.6845 4.95821C12.728 4.90611 12.7789 4.81043 12.8223 4.81043C13.8382 4.818 13.5847 4.05166 13.5634 3.48518C13.5338 2.572 13.4478 1.66829 13.3969 0.765524C13.3895 0.402713 13.3895 -0.00747484 13.8743 0.000103452C14.3184 0.00768174 14.2971 0.402708 14.2823 0.736152C14.261 1.45798 14.1519 2.18266 14.3184 2.89692C14.5284 3.83757 14.929 4.00712 15.721 3.47854C16.1688 3.18582 16.6425 2.9708 17.1662 2.86755C17.8027 2.74914 18.0303 2.98596 17.9036 3.61117C17.8749 3.74474 17.8092 3.87451 17.7666 4.00713C17.6648 4.333 17.1588 4.5736 17.3688 4.89189C17.7231 5.42805 18.1746 5.89792 18.6983 6.28631C18.7529 6.32325 18.851 6.35356 18.887 6.33083C19.4144 5.99454 19.729 6.08358 19.8946 6.73816C19.9742 7.0375 20.2452 6.96362 20.4405 6.76753C20.7661 6.43503 21.0807 6.0978 21.4054 5.77193C21.4924 5.69142 21.5868 5.51711 21.7311 5.62794C21.832 5.70562 21.7163 5.83918 21.6802 5.94244C21.485 6.44261 21.2611 6.92666 20.9752 7.37852C20.5126 8.10319 20.6644 8.592 21.4711 8.86198C21.7746 8.96618 22.0956 8.98039 22.4065 9.06185C22.9885 9.21342 23.1041 9.5175 22.685 9.92767C22.2039 10.4089 22.2039 10.7234 22.8515 10.9972C23.068 11.0824 23.2817 11.2084 23.1763 11.5191C22.9311 12.2182 23.3715 12.725 23.7369 13.1513C24.0913 13.5614 24.0913 13.8059 23.7147 14.1204C23.6065 14.2094 23.5056 14.2975 23.4002 14.3865C22.6165 15.0118 22.5804 15.1529 23.0245 16.0775C23.1689 16.3891 22.9811 16.5473 22.808 16.7405C22.277 17.343 22.3269 17.5505 23.0532 17.8944C23.2198 17.9758 23.3752 18.0724 23.5056 18.2051C23.7009 18.4012 23.91 18.6531 23.7656 18.9383C23.6065 19.2641 23.2919 19.1381 23.0319 19.0718C22.808 19.0121 22.598 18.9231 22.3852 18.8416C22.2335 18.7867 22.067 18.7128 21.9661 18.9013C21.8717 19.0784 21.9726 19.2272 22.0892 19.338C22.2548 19.4896 22.4574 19.6156 22.6165 19.7785C22.7498 19.9187 22.8219 20.093 22.6637 20.2777C22.5222 20.4406 22.3778 20.344 22.2335 20.2777C22.1678 20.2483 22.1178 20.2038 22.0522 20.1745C21.8033 20.0295 21.4276 19.6156 21.3555 19.7188C21.1603 20.0077 21.5359 20.2701 21.6515 20.5591C21.7524 20.8139 21.9226 21.0507 22.0096 21.3065C22.0956 21.5584 22.2409 21.9023 21.8939 22.0425C21.6081 22.1533 21.3842 21.9099 21.2324 21.6617C21.0409 21.3434 20.8818 21.0062 20.6718 20.7031C20.52 20.4852 20.3683 20.1299 20.0833 20.1811C19.729 20.2484 19.8881 20.6443 19.852 20.9029C19.8085 21.1625 19.8224 21.4325 19.4431 21.4022C19.1109 21.3804 19.1831 21.6617 19.1609 21.854C19.0823 22.7492 19.3274 23.5601 19.8085 24.2999C20.0611 24.6921 20.3109 25.0805 20.5487 25.4764C20.7152 25.7578 20.8383 26.0609 20.8596 26.3981C20.8818 26.742 20.8457 27.0679 20.4765 27.2043C20.0685 27.3672 19.815 27.1124 19.6346 26.7941C19.4903 26.5383 19.3783 26.2428 19.32 25.9576C19.1035 24.8664 18.6446 23.8821 18.1386 22.9121C18.0738 22.7861 18.0081 22.6611 17.9147 22.5645C17.5205 22.1685 17.0542 21.7204 16.4908 21.9686C15.9227 22.2206 16.104 22.8458 16.1836 23.345C16.241 23.7334 16.3677 24.119 16.4288 24.5073C16.4834 24.9403 16.6064 25.4622 15.9301 25.4992C15.3047 25.5361 15.3629 25.0293 15.3481 24.6182C15.3417 24.2923 15.3777 23.9636 15.3777 23.6415C15.3703 22.9642 14.7523 22.1979 14.0695 22.0283C13.4765 21.8796 12.6484 22.3466 12.3847 23.0012C11.9508 24.0517 11.9508 25.1846 11.7852 26.2949C11.6982 26.8973 11.651 27.5008 11.2319 27.9858C11.095 28 10.9608 28 10.8239 28Z" fill="var(--fill-0, white)"/>
</svg>
