<?xml version="1.0" encoding="UTF-8"?><svg id="Layer_1" xmlns="http://www.w3.org/2000/svg" viewBox="0 0 28.35 24.96"><defs><style>.cls-1{fill:#fff;}</style></defs><path id="bluesky" class="cls-1" d="M6.14,1.68c3.25,2.44,6.75,7.39,8.03,10.04,1.28-2.65,4.78-7.6,8.03-10.04,2.34-1.76,6.14-3.12,6.14,1.21,0,.87-.5,7.27-.79,8.31-1.01,3.62-4.7,4.54-7.98,3.98,5.73.98,7.19,4.21,4.04,7.44-5.98,6.14-8.6-1.54-9.27-3.51-.12-.36-.18-.53-.18-.39,0-.14-.06.03-.18.39-.67,1.97-3.29,9.65-9.27,3.51-3.15-3.23-1.69-6.46,4.04-7.44-3.28.56-6.97-.36-7.98-3.98-.29-1.04-.79-7.45-.79-8.31C0-1.44,3.8-.08,6.14,1.68h0Z"/></svg>