<?xml version="1.0" encoding="UTF-8"?><svg id="Layer_1" xmlns="http://www.w3.org/2000/svg" viewBox="0 0 28.35 21.94"><defs><style>.cls-1{fill:#fff;}</style></defs><g id="discord"><path class="cls-1" d="M24.01,1.84c-1.83-.86-3.8-1.48-5.85-1.84-.25.46-.55,1.07-.75,1.56-2.18-.33-4.34-.33-6.48,0-.2-.49-.5-1.1-.76-1.56-2.05.36-4.02.98-5.85,1.84C.62,7.44-.38,12.89.12,18.27c2.45,1.83,4.83,2.95,7.17,3.68.58-.79,1.09-1.64,1.54-2.53-.84-.32-1.65-.72-2.42-1.18.2-.15.4-.31.59-.47,4.66,2.18,9.73,2.18,14.34,0,.19.16.39.32.59.47-.77.46-1.58.86-2.42,1.18.44.89.96,1.74,1.54,2.53,2.34-.73,4.72-1.84,7.18-3.68.59-6.23-1.01-11.64-4.21-16.43ZM9.46,14.96c-1.4,0-2.55-1.31-2.55-2.9s1.12-2.9,2.55-2.9,2.57,1.31,2.55,2.9c0,1.59-1.12,2.9-2.55,2.9ZM18.88,14.96c-1.4,0-2.55-1.31-2.55-2.9s1.12-2.9,2.55-2.9,2.57,1.31,2.55,2.9c0,1.59-1.12,2.9-2.55,2.9Z"/></g></svg>