<?xml version="1.0" encoding="UTF-8"?><svg id="Layer_1" xmlns="http://www.w3.org/2000/svg" viewBox="0 0 28.35 32.12"><defs><style>.cls-1{fill:#fff;}</style></defs><path id="fetlife" class="cls-1" d="M28.35,15.68c0,6.79-8.11,10.39-14.17,16.44C8.11,26.07,0,22.47,0,15.68c0-1.41.42-2.73,1.13-3.83-.31-1.49-.36-3.03-.15-4.54.2-1.38.59-2.72,1.16-3.98.4-.89.87-1.75,1.42-2.56.18-.26.36-.52.56-.77-.04.31-.05.62-.06.93-.03.91.03,1.81.16,2.71.16,1.12.48,2.2.95,3.23.3.64.68,1.23,1.13,1.77.26-.03.52-.04.78-.04,3.92,0,7.09,3.29,7.09,3.29,0,0,3.17-3.29,7.09-3.29.26,0,.53.01.78.04.12-.14.24-.3.36-.46.29-.4.55-.84.77-1.32.47-1.03.79-2.11.95-3.23.14-.9.19-1.8.17-2.71,0-.31-.03-.62-.06-.93.2.24.38.5.56.77.55.81,1.02,1.67,1.42,2.56.54,1.22.95,2.54,1.16,3.98.1.72.15,1.47.12,2.24-.02.77-.12,1.54-.28,2.3.71,1.1,1.13,2.42,1.13,3.83h0Z"/></svg>