<?xml version="1.0" encoding="UTF-8"?><svg id="Layer_1" xmlns="http://www.w3.org/2000/svg" viewBox="0 0 28.35 29.55"><defs><style>.cls-1{fill:#fff;}</style></defs><g id="furaffinity"><path class="cls-1" d="M11.83,29.55c-.33-.37-.44-.78-.34-1.3.19-1.01.22-2.05.52-3.05.26-.85-.23-1.68-1.03-2.06-.23-.1-.31-.09-.31.17,0,.32.02.64-.04.95-.07.36-.17.79-.68.69-.45-.09-.43-.49-.4-.83s.12-.68.15-1.02c.02-.29.02-.62-.26-.81-.29-.19-.5.04-.71.2-.35.28-.68.21-.85-.16-.23-.47-.41-.2-.59-.02-.66.68-1.44,1.2-2.27,1.63-.8.42-1.34,1.06-1.64,1.92-.16.43-.29.89-.6,1.27-.34.41-.77.48-1.21.3-.43-.18-.49-.58-.44-1,.03-.27.11-.54.29-.75,1.23-1.3,2.22-2.83,3.87-3.69.3-.16.59-.37.83-.61.23-.23.78-.51.04-.83-.16-.07-.11-.25-.05-.4.03-.06.05-.13.07-.2-.87.07-.49-.65-.68-1.02-.16-.32-.54-.3-.85-.29-.3,0-.56.17-.8.35-.22.16-.43.33-.68.45-.7.33-1.59.07-1.79-.5-.19-.51.36-1.29,1.06-1.47.31-.08.63-.09.95-.12.27-.03.54-.02.81-.08.42-.09.89-.28.92-.71.03-.4-.47-.51-.81-.63-1.05-.34-2.12-.42-3.21-.21-.31.06-.59.1-.81-.17-.16-.19-.17-.4-.07-.62.16-.35.51-.47.81-.36,1.16.46,2.27,0,3.4-.15.91-.12,1.15-.54.8-1.4-.05-.13-.18-.29-.07-.41.78-.88,0-1.65-.24-2.41-.16-.5-.12-.75.4-.85.24-.05.5-.05.73-.12.28-.09.68.02.77-.42.08-.36-.02-.68-.29-.94-.8-.77-1.63-1.5-2.64-2-.32-.17-.64-.36-.93-.58-.28-.21-.5-.5-.36-.89.14-.4.42-.66.85-.73.35-.05.69,0,1,.17,1,.58,1.99,1.2,2.68,2.17.13.18.26.4.48.44.52.09.81.39.98.87.11.33.36.56.73.49.39-.07.26-.43.25-.67,0-.34.05-.57.46-.61.57-.05.52-.33.32-.77-.3-.68-.68-1.3-1.02-1.96-.25-.49-.57-1.06-.05-1.55.28-.26.93.28,1.23,1.03.19.48.3.99.49,1.47.09.23.18.6.53.47.29-.1.21-.45.13-.66-.36-.99-.77-1.96-1.16-2.94-.11-.27-.25-.54-.35-.81-.08-.22-.06-.47.18-.57.27-.12.4.1.49.31.12.29.24.6.3.91.3,1.48,1.23,2.61,2.15,3.73.19.23.37.33.6.04.05-.05.1-.16.15-.16,1.09,0,.82-.8.8-1.4-.03-.96-.12-1.92-.18-2.87,0-.38,0-.81.51-.81.48,0,.46.43.44.78-.02.76-.14,1.53.04,2.28.23.99.66,1.17,1.51.61.48-.31.99-.54,1.56-.64.68-.12.93.12.79.78-.03.14-.1.28-.15.42-.11.34-.65.6-.43.93.38.57.87,1.06,1.44,1.47.05.04.16.07.2.05.57-.36.91-.26,1.09.43.09.32.38.24.59.03.35-.35.69-.71,1.04-1.05.09-.09.19-.27.35-.16.11.09-.02.23-.05.33-.21.53-.45,1.04-.76,1.51-.5.77-.33,1.28.54,1.57.33.11.68.12,1.01.21.63.16.75.48.3.92-.52.5-.52.84.18,1.13.23.09.47.23.35.55-.26.74.21,1.27.61,1.72.38.43.38.69-.02,1.02-.12.09-.23.19-.34.28-.85.66-.88.81-.4,1.79.16.33-.05.5-.23.7-.57.64-.52.85.26,1.22.18.09.35.19.49.33.21.21.43.47.28.78-.17.34-.51.21-.79.14-.24-.06-.47-.16-.7-.24-.16-.06-.34-.14-.45.06-.1.19,0,.34.13.46.18.16.4.29.57.47.15.15.23.33.05.53-.16.17-.31.07-.47,0-.07-.03-.12-.08-.19-.11-.27-.16-.68-.59-.75-.48-.21.3.19.58.32.88.11.27.29.52.39.79.09.26.25.63-.12.78-.31.12-.55-.14-.71-.4-.21-.33-.38-.69-.61-1.01-.16-.23-.33-.61-.64-.55-.38.07-.21.49-.25.76-.05.27-.03.56-.44.53-.36-.02-.28.27-.3.47-.09.95.18,1.8.7,2.58.27.41.54.82.8,1.24.18.29.31.61.33.97.02.36-.02.71-.41.85-.44.17-.71-.1-.91-.43-.16-.27-.28-.58-.34-.88-.23-1.15-.73-2.19-1.27-3.21-.07-.13-.14-.26-.24-.36-.43-.42-.93-.89-1.54-.63-.61.26-.42.92-.33,1.45.06.41.2.81.26,1.23.06.46.19,1.01-.54,1.05-.68.04-.61-.5-.63-.93,0-.34.03-.69.03-1.03,0-.71-.68-1.52-1.41-1.7-.64-.16-1.53.33-1.82,1.02-.47,1.11-.47,2.31-.64,3.48-.09.64-.15,1.27-.6,1.79-.15.02-.29.02-.44.02ZM8.26,18.6c0,1.37.67,2.05,2.03,2.08.59.02,1.18.03,1.77,0,.83-.04,1.54.2,2.14.8.46.47,1.02.78,1.66.91.62.12,1.28.16,1.72-.37,1.25-1.54,1.42-2.77.17-4.23-.47-.54-.76-1.09-.92-1.79-.36-1.58-1.51-2.46-2.82-2.24-.82.14-1.56.47-2.1,1.13-.33.4-.71.61-1.23.72-1.52.31-2.42,1.47-2.41,3ZM16.13,8.34c-.02-.83-.13-1.59-.83-2.02-.53-.32-1.13-.13-1.6.21-1.13.81-1.98,1.85-2.37,3.21-.29,1,.27,2.14,1.23,2.58.92.43,1.75.18,2.44-.76.71-.97,1.09-2.07,1.13-3.22ZM20.41,10.78c-.02-.92-.18-1.79-.62-2.58-.63-1.12-1.59-1.25-2.44-.28-1.06,1.22-1.44,2.67-1.19,4.25.12.76.53,1.4,1.33,1.62.8.23,1.5-.04,2.09-.61.69-.67.81-1.54.83-2.41ZM9.03,15.34c1.34,0,2.07-.64,2.14-1.84.04-.78-.17-1.51-.57-2.17-.26-.43-.64-.57-1.13-.41-.82.28-1.47.76-1.93,1.5-.44.71-.4,1.45-.02,2.17.34.66.99.73,1.51.76ZM21.9,16.59c0-.78-.25-1.49-.64-2.16-.31-.54-.76-.67-1.31-.4-.71.34-1.24.87-1.64,1.54-.45.76-.41,1.54.07,2.13.53.63,1.65,1.06,2.23.85.81-.29,1.28-1,1.29-1.96ZM10.18,9.52c-.02-.18-.11-.29-.28-.26-.27.05-.4.26-.4.52,0,.15.1.29.28.26.26-.05.36-.28.4-.52ZM18.71,5.98c-.26.11-.23.34-.23.55,0,.17.04.38.27.34.23-.04.29-.26.26-.46,0-.19-.05-.39-.31-.43ZM21.74,12.85c0-.16-.02-.33-.23-.29-.26.04-.33.26-.31.48.02.14.07.33.24.3.26-.03.27-.28.29-.49ZM16,5.4c0-.15-.07-.26-.21-.23-.29.07-.44.27-.46.57,0,.11.02.28.18.22.26-.1.43-.29.49-.56Z"/><path class="cls-1" d="M0,23.49s.05,0,.07,0c.23-.09.47-.16.64.1.09.13.09.3-.04.4C.36,24.22.19,23.93,0,23.77c0-.09,0-.19,0-.29Z"/><path class="cls-1" d="M26.77,13.15c-.4-.12-1.02.19-1.12-.28-.06-.33.6-.17.92-.3.38-.16.8-.23,1.2-.28.23-.03.54,0,.57.31.02.24-.21.37-.44.4-.38.07-.77.11-1.13.15Z"/><path class="cls-1" d="M23.61,25.4c.47.02,1.08.68,1.02,1.11-.05.33-.3.65-.57.54-.55-.23-.57-.85-.72-1.35-.07-.23.06-.33.28-.3Z"/><path class="cls-1" d="M2.36,9.1c.47.09.66.46.71.88.04.36-.27.43-.54.43-.52,0-.64-.35-.62-.78,0-.29.07-.54.46-.52Z"/><path class="cls-1" d="M4.14,21.54c-.32-.05-.38-.31-.34-.5.1-.48.6-.57.94-.79.15-.09.35.09.29.29-.14.48-.5.77-.89,1Z"/><path class="cls-1" d="M18.13,2.19c-.1.39-.43.46-.75.48-.32.02-.23-.25-.24-.43,0-.33.15-.5.5-.5.29.02.47.14.49.44Z"/><path class="cls-1" d="M26.41,20.54c.26.06.56.17.55.53,0,.22-.2.33-.42.32-.29-.03-.5-.2-.53-.51-.02-.25.12-.35.4-.33Z"/><path class="cls-1" d="M24.17,5.43c-.29-.03-.24-.23-.24-.39,0-.33.21-.47.52-.47.22,0,.33.11.29.31-.05.34-.33.46-.57.55Z"/><path class="cls-1" d="M14.52,26.2c-.18-.03-.27-.13-.23-.3.07-.26.19-.54.48-.57.23-.02.19.23.17.39-.02.26-.15.45-.43.48Z"/><path class="cls-1" d="M25.41,8.98c-.05.21-.22.26-.39.27-.19.02-.33-.09-.31-.31.02-.19.16-.31.35-.28.18.02.32.12.35.32Z"/><path class="cls-1" d="M3.77,9.15c-.13-.04-.21-.12-.18-.26.03-.18.12-.33.32-.33.13,0,.23.09.19.23-.05.16-.15.3-.33.36Z"/><path class="cls-1" d="M26.37,8.98c-.02.15-.06.29-.25.31-.15.02-.23-.06-.25-.2-.02-.18.06-.28.24-.29.13-.02.23.05.26.19Z"/></g></svg>