<?xml version="1.0" encoding="UTF-8"?><svg id="Layer_1" xmlns="http://www.w3.org/2000/svg" viewBox="0 0 28.35 28.35"><defs><style>.cls-1{fill:#fff;}</style></defs><path id="instagram" class="cls-1" d="M8.3.1c-1.51.07-2.54.31-3.44.67-.93.36-1.72.85-2.51,1.64-.79.79-1.27,1.58-1.63,2.51-.35.9-.59,1.93-.65,3.44C0,9.87,0,10.35,0,14.2s.02,4.33.1,5.84c.07,1.51.31,2.54.67,3.44.36.93.85,1.72,1.64,2.51.79.79,1.58,1.27,2.51,1.63.9.35,1.93.59,3.44.65,1.51.07,1.99.08,5.84.07,3.85,0,4.33-.02,5.84-.1s2.54-.31,3.44-.67c.93-.36,1.72-.85,2.51-1.64s1.27-1.58,1.63-2.51c.35-.9.59-1.93.65-3.44.07-1.51.08-2,.07-5.84s-.02-4.33-.1-5.84-.31-2.54-.67-3.44c-.36-.93-.85-1.72-1.64-2.51s-1.58-1.27-2.51-1.63c-.9-.35-1.93-.59-3.44-.65S18,0,14.15,0c-3.85,0-4.33.02-5.84.1M8.47,25.72c-1.38-.06-2.13-.29-2.63-.48-.66-.26-1.13-.56-1.63-1.06s-.8-.97-1.06-1.63c-.19-.5-.43-1.25-.49-2.63-.07-1.49-.09-1.94-.09-5.73s0-4.23.07-5.73c.06-1.38.29-2.13.48-2.63.26-.66.56-1.13,1.06-1.63s.97-.8,1.63-1.06c.5-.2,1.25-.43,2.63-.49,1.49-.07,1.94-.09,5.73-.09,3.78,0,4.23,0,5.73.07,1.38.06,2.13.29,2.63.48.66.26,1.13.56,1.63,1.06s.81.97,1.06,1.63c.2.5.43,1.25.49,2.63.07,1.49.09,1.94.09,5.73,0,3.78,0,4.23-.07,5.73-.06,1.38-.29,2.13-.48,2.63-.26.66-.56,1.13-1.06,1.63s-.97.8-1.63,1.06c-.5.19-1.25.43-2.63.49-1.49.07-1.94.09-5.73.09s-4.23,0-5.73-.07M20.02,6.6c0,.94.76,1.7,1.7,1.7s1.7-.76,1.7-1.7c0-.94-.76-1.7-1.7-1.7,0,0,0,0,0,0-.94,0-1.7.76-1.7,1.7M6.9,14.19c0,4.02,3.27,7.27,7.29,7.26s7.27-3.27,7.26-7.29-3.27-7.27-7.29-7.26-7.27,3.27-7.26,7.29M9.45,14.18c0-2.61,2.11-4.73,4.72-4.73,2.61,0,4.73,2.11,4.73,4.72,0,2.61-2.11,4.73-4.72,4.73-2.61,0-4.73-2.11-4.73-4.71h0"/></svg>