<?xml version="1.0" encoding="UTF-8"?><svg id="Layer_1" xmlns="http://www.w3.org/2000/svg" viewBox="0 0 28.35 28.35"><defs><style>.cls-1{fill:#b32125;}.cls-2{fill:#343333;}.cls-3{fill:#e8e8e8;}</style></defs><g id="recon"><path class="cls-2" d="M.01,14.3c0-1.15-.03-2.31,0-3.46.04-1.13.27-2.23.66-3.3.4-1.09.96-2.09,1.67-2.97C4.21,2.29,6.5.73,9.4.2,10.13.07,10.86,0,11.6,0c1.84,0,3.68.01,5.52,0,1.05-.01,2.07.2,3.07.5,1.23.37,2.37.96,3.41,1.74.51.38,1.05.77,1.46,1.25.68.8,1.38,1.6,1.88,2.56.51.95.92,1.94,1.13,3,.14.72.29,1.45.28,2.21-.03,2.12.02,4.23-.02,6.35-.02.73-.2,1.47-.38,2.19-.32,1.28-.89,2.44-1.65,3.51-.59.83-1.28,1.55-2.05,2.21-.77.66-1.58,1.22-2.48,1.65-.96.46-1.96.78-3.01.96-1.11.19-2.23.23-3.36.22-1.3-.01-2.6.04-3.9-.01-2.12-.08-4.12-.59-5.97-1.76-1.08-.68-2.02-1.51-2.84-2.47-.98-1.15-1.75-2.46-2.17-3.96-.18-.63-.35-1.27-.48-1.91-.06-.27-.01-.56-.01-.84,0-1.03,0-2.06,0-3.1ZM14.14,26.92c.64,0,1.28,0,1.92,0,1.1.01,2.18-.05,3.26-.32,3.74-.92,7.65-4.49,7.73-9.84.03-1.78.03-3.57,0-5.35-.02-1.26-.23-2.51-.75-3.66-1.84-4.06-4.97-6.17-9.25-6.4-1.9-.1-3.81-.05-5.72,0-1.97.05-3.82.59-5.47,1.74C2.9,5.18,1.3,8.05,1.28,11.81c0,1.68-.02,3.36,0,5.04.01,1.18.22,2.32.64,3.42,1.49,3.92,5.26,6.61,9.33,6.66.96.01,1.92,0,2.88,0Z"/><path class="cls-3" d="M14.14,26.92c-.96,0-1.92,0-2.88,0-4.07-.05-7.84-2.73-9.33-6.66-.42-1.1-.62-2.25-.64-3.42-.02-1.68,0-3.36,0-5.04.02-3.76,1.62-6.62,4.59-8.7,1.65-1.15,3.5-1.7,5.47-1.74,1.9-.05,3.82-.1,5.72,0,4.28.23,7.41,2.34,9.25,6.4.52,1.15.73,2.39.75,3.66.02,1.78.03,3.57,0,5.35-.08,5.35-3.99,8.92-7.73,9.84-1.08.26-2.16.33-3.26.32-.64,0-1.28,0-1.92,0ZM14.17,2.97v-.03c-.76,0-1.52,0-2.28,0-.82,0-1.64.05-2.46.25-3.37.81-6.72,3.98-6.66,8.71.02,1.57,0,3.15,0,4.72.02,1.28.23,2.54.82,3.68,1.65,3.22,4.25,4.91,7.75,5.04,1.85.07,3.71.03,5.57,0,.57,0,1.14-.09,1.7-.2,3.37-.62,7-3.81,6.94-8.78-.02-1.49,0-2.97,0-4.46,0-.89-.11-1.77-.35-2.64-.51-1.84-1.56-3.31-3.01-4.46-1.45-1.15-3.1-1.79-4.94-1.84-1.03-.03-2.06,0-3.09,0Z"/><path class="cls-1" d="M14.17,2.97c1.03,0,2.06-.02,3.09,0,1.84.05,3.49.69,4.94,1.84,1.45,1.15,2.5,2.62,3.01,4.46.24.86.34,1.74.35,2.64.01,1.49,0,2.97,0,4.46.06,4.97-3.57,8.17-6.94,8.78-.56.1-1.13.19-1.7.2-1.86.02-3.71.06-5.57,0-3.5-.13-6.1-1.82-7.75-5.04-.59-1.14-.8-2.4-.82-3.68-.02-1.57.01-3.15,0-4.72-.07-4.73,3.29-7.9,6.66-8.71.81-.19,1.63-.24,2.46-.25.76,0,1.52,0,2.28,0v.03ZM14.17,19.41s0-.03,0-.05c.46,0,.91,0,1.37,0,1.05-.02,1.97-.42,2.71-1.19.75-.77,1.15-1.71,1.14-2.81,0-1.08.06-2.18-.13-3.23-.3-1.7-1.71-2.91-3.14-3.03-1.24-.11-2.49-.08-3.73-.02-1.86.1-3.4,1.91-3.42,3.81-.01.8.03,1.61,0,2.41-.06,1.52.99,3.51,3.06,3.94.7.15,1.44.12,2.16.17Z"/><path class="cls-3" d="M14.17,19.41c-.72-.05-1.46-.02-2.16-.17-2.07-.43-3.12-2.43-3.06-3.94.03-.8,0-1.61,0-2.41.03-1.9,1.57-3.7,3.42-3.81,1.24-.07,2.49-.09,3.73.02,1.43.12,2.85,1.33,3.14,3.03.18,1.05.12,2.15.13,3.23,0,1.1-.39,2.04-1.14,2.81-.74.77-1.66,1.17-2.71,1.19-.45.01-.91,0-1.37,0,0,.02,0,.03,0,.05ZM14.15,16.45s0,0,0,0c.32,0,.64.02.96,0,.72-.05,1.32-.61,1.37-1.36.05-.61.05-1.22,0-1.83-.05-.73-.53-1.29-1.24-1.36-.7-.07-1.42-.08-2.11,0-.78.08-1.27.67-1.31,1.48-.03.52-.03,1.05,0,1.57.05.87.67,1.48,1.51,1.51.27.01.54,0,.81,0Z"/><path class="cls-2" d="M14.15,16.45c-.27,0-.54,0-.81,0-.84-.03-1.47-.64-1.51-1.51-.03-.52-.03-1.05,0-1.57.04-.8.53-1.4,1.31-1.48.7-.07,1.41-.06,2.11,0,.71.07,1.19.62,1.24,1.36.04.61.04,1.23,0,1.83-.06.74-.65,1.31-1.37,1.36-.32.02-.64,0-.96,0,0,0,0,0,0,0Z"/></g></svg>