<?xml version="1.0" encoding="UTF-8"?><svg id="Layer_1" xmlns="http://www.w3.org/2000/svg" viewBox="0 0 28.35 28.35"><defs><style>.cls-1{fill:#fff;}</style></defs><path id="telegram" class="cls-1" d="M22.24,0H6.1C2.73,0,0,2.73,0,6.1v16.14c0,3.37,2.73,6.1,6.1,6.1h16.14c3.37,0,6.1-2.73,6.1-6.1V6.1c0-3.37-2.73-6.1-6.1-6.1ZM20.89,13.66l-1.02,6.43s-.08.94-.78,1.11c-.7.16-1.84-.57-2.05-.74-.16-.12-3.07-1.97-4.14-2.87-.29-.25-.61-.74.04-1.31,1.47-1.35,3.23-3.03,4.3-4.09.49-.49.98-1.64-1.06-.25l-5.78,3.88s-.66.41-1.88.04-2.66-.86-2.66-.86c0,0-.98-.61.7-1.27l9.54-3.93c.94-.41,4.14-1.72,4.14-1.72,0,0,1.47-.57,1.35.82-.04.57-.37,2.58-.7,4.75Z"/></svg>